name Walk5.mot
datacolumns 19
datarows 10
range 1.82100000 1.83000000
endheader

                time	   L_ground_force_vx	   L_ground_force_vy	   L_ground_force_vz	   L_ground_force_px	   L_ground_force_py	   L_ground_force_pz	   R_ground_force_vx	   R_ground_force_vy	   R_ground_force_vz	   R_ground_force_px	   R_ground_force_py	   R_ground_force_pz	   L_ground_torque_x	   L_ground_torque_y	   L_ground_torque_z	   R_ground_torque_x	   R_ground_torque_y	   R_ground_torque_z	
          1.82100000	          1.78699877	         32.04784587	         -2.48627146	          0.00162786	          0.00000000	          0.00126003	          0.00000000	          0.00000000	          0.00000000	          0.00000000	          0.00000000	          0.00000000	          0.00000000	         -0.06975961	          0.00000000	          0.00000000	         -0.00000000	          0.00000000	
          1.82200000	          2.19150437	         37.40602806	         -2.68758944	         -0.01872140	          0.00000000	          0.00075126	          0.00000000	          0.00000000	          0.00000000	          0.00000000	          0.00000000	          0.00000000	          0.00000000	         -0.07941627	          0.00000000	          0.00000000	         -0.00000000	          0.00000000	
          1.82300000	          2.55717161	         42.86864113	         -2.89594042	         -0.03898976	          0.00000000	          0.00024787	          0.00000000	          0.00000000	          0.00000000	          0.00000000	          0.00000000	          0.00000000	          0.00000000	         -0.08887363	          0.00000000	          0.00000000	         -0.00000000	          0.00000000	
          1.82400000	          2.87991501	         48.42667653	         -3.11113237	         -0.05910821	          0.00000000	         -0.00024841	          0.00000000	          0.00000000	          0.00000000	          0.00000000	          0.00000000	          0.00000000	          0.00000000	         -0.09808390	          0.00000000	          0.00000000	         -0.00000000	          0.00000000	
          1.82500000	          3.15568928	         54.07068625	         -3.33292659	         -0.07901213	          0.00000000	         -0.00073589	          0.00000000	          0.00000000	          0.00000000	          0.00000000	          0.00000000	          0.00000000	          0.00000000	         -0.10699951	          0.00000000	          0.00000000	         -0.00000000	          0.00000000	
          1.82600000	          3.38053726	         59.79086376	         -3.56103432	         -0.09864278	          0.00000000	         -0.00121301	         -0.00000000	          0.00000000	          0.00000000	          0.00000000	          0.00000000	          0.00000000	          0.00000000	         -0.11557372	          0.00000000	          0.00000000	         -0.00000000	          0.00000000	
          1.82700000	          3.55063169	         65.57712366	         -3.79511405	         -0.11794747	          0.00000000	         -0.00167838	         -0.00000000	          0.00000000	          0.00000000	          0.00000000	          0.00000000	          0.00000000	          0.00000000	         -0.12376090	          0.00000000	          0.00000000	         -0.00000000	          0.00000000	
          1.82800000	          3.66231424	         71.41919331	         -4.03476941	         -0.13687922	          0.00000000	         -0.00213074	         -0.00000000	          0.00000000	          0.00000000	          0.00000000	          0.00000000	          0.00000000	          0.00000000	         -0.13151651	          0.00000000	          0.00000000	         -0.00000000	          0.00000000	
          1.82900000	          3.71213642	         77.30673021	         -4.27954695	         -0.15539645	          0.00000000	         -0.00256904	         -0.00000000	          0.00000000	          0.00000000	          0.00000000	          0.00000000	          0.00000000	          0.00000000	         -0.13879713	          0.00000000	          0.00000000	         -0.00000000	          0.00000000	
          1.83000000	          3.69690384	         83.22946628	         -4.52893357	         -0.17346271	          0.00000000	         -0.00299241	         -0.00000000	          0.00000000	          0.00000000	          0.00000000	          0.00000000	          0.00000000	          0.00000000	         -0.14556062	          0.00000000	          0.00000000	         -0.00000000	          0.00000000	
